<svg data-name="boat" xmlns="http://www.w3.org/2000/svg" viewBox="0 0 164.32 166.98">
                <defs>
                    <style>
                        .cls-1010 {
                            fill: #d9d9d9;
                        }

                        .cls-1010, .cls-2010 {
                            stroke-width: 0px;
                        }

                        .cls-2010 {
                            fill: #131930;
                        }
                    </style>
                </defs>
                <path class="cls-2010" d="m62.7,0c-3.08,0-5.58,2.5-5.58,5.58,0,1.79.87,3.36,2.19,4.38v115.61H1.68s32.23,40.09,56.78,41.31c49.29,2.44,105.86-41.31,105.86-41.31h-98.09V9.86c1.24-1.02,2.05-2.55,2.05-4.28,0-3.08-2.5-5.58-5.58-5.58h0Zm7.8,8.52c8.29,42.49,14.31,83.16,0,107.57l81.76.1c-15.32-35.89-39.01-71.78-81.76-107.67h0Zm-15.3,36.07C47.48,83.5,20.21,96.72,0,116.27l55.2-.07V44.6h0Z" />
</svg>