<svg data-name="boat" xmlns="http://www.w3.org/2000/svg" viewBox="0 0 164.32 166.98">
                <defs>
                    <style>
                        .cls-3010 {
                            fill: black;
                        }

                        .cls-3010, .cls-4010 {
                            stroke-width: 0px;
                        }

                        .cls-4010 {
                            fill: rgba(217, 217, 217, 0.95);
                        }
                    </style>
                </defs>
                <path class="cls-4010" d="m62.7,0c-3.08,0-5.58,2.5-5.58,5.58,0,1.79.87,3.36,2.19,4.38v115.61H1.68s32.23,40.09,56.78,41.31c49.29,2.44,105.86-41.31,105.86-41.31h-98.09V9.86c1.24-1.02,2.05-2.55,2.05-4.28,0-3.08-2.5-5.58-5.58-5.58h0Zm7.8,8.52c8.29,42.49,14.31,83.16,0,107.57l81.76.1c-15.32-35.89-39.01-71.78-81.76-107.67h0Zm-15.3,36.07C47.48,83.5,20.21,96.72,0,116.27l55.2-.07V44.6h0Z" />
                <path class="cls-3010" d="m26.97,143.41c1.61-1.29,2.87-2.35,3.78-3.17.91-.84,1.68-1.7,2.3-2.6.63-.91.95-1.81.95-2.68,0-.82-.2-1.47-.61-1.94-.39-.48-1.03-.72-1.92-.72s-1.53.27-2.01.82c-.47.53-.72,1.25-.76,2.15h-1.67c.05-1.42.48-2.51,1.29-3.29.81-.77,1.86-1.16,3.13-1.16s2.34.36,3.1,1.08c.77.72,1.16,1.72,1.16,2.98,0,1.05-.32,2.08-.95,3.08-.62.99-1.33,1.86-2.13,2.62-.8.75-1.82,1.62-3.06,2.62h6.54v1.44h-9.14v-1.23Zm11.14-5.62c0-2.18.35-3.88,1.06-5.09.71-1.23,1.95-1.84,3.72-1.84s3,.61,3.71,1.84c.71,1.22,1.06,2.91,1.06,5.09s-.35,3.94-1.06,5.17c-.71,1.23-1.94,1.84-3.71,1.84s-3.01-.61-3.72-1.84c-.71-1.23-1.06-2.95-1.06-5.17Zm7.85,0c0-1.1-.08-2.03-.23-2.79-.14-.77-.44-1.39-.89-1.86-.44-.47-1.09-.7-1.94-.7s-1.52.23-1.98.7c-.44.47-.74,1.09-.89,1.86-.14.76-.21,1.69-.21,2.79s.07,2.1.21,2.87c.15.77.45,1.39.89,1.86.46.47,1.11.7,1.98.7s1.49-.23,1.94-.7c.46-.47.75-1.09.89-1.86.15-.77.23-1.73.23-2.87Zm3.87,5.62c1.61-1.29,2.87-2.35,3.78-3.17.91-.84,1.68-1.7,2.3-2.6.63-.91.95-1.81.95-2.68,0-.82-.2-1.47-.61-1.94-.39-.48-1.03-.72-1.92-.72s-1.53.27-2.01.82c-.47.53-.72,1.25-.76,2.15h-1.67c.05-1.42.48-2.51,1.29-3.29.81-.77,1.86-1.16,3.14-1.16s2.34.36,3.1,1.08c.77.72,1.16,1.72,1.16,2.98,0,1.05-.32,2.08-.95,3.08-.62.99-1.33,1.86-2.13,2.62-.8.75-1.82,1.62-3.06,2.62h6.54v1.44h-9.14v-1.23Zm11.1-8.89c.09-1.17.54-2.08,1.35-2.74s1.86-.99,3.15-.99c.86,0,1.6.16,2.22.48.63.3,1.11.72,1.43,1.25.33.53.49,1.13.49,1.81,0,.79-.23,1.46-.68,2.03-.44.57-1.03.94-1.75,1.1v.09c.82.2,1.48.6,1.96,1.2s.72,1.37.72,2.34c0,.72-.16,1.37-.49,1.96-.33.57-.82,1.02-1.48,1.35-.66.33-1.45.49-2.38.49-1.34,0-2.44-.35-3.31-1.05-.86-.71-1.34-1.71-1.44-3h1.67c.09.76.4,1.38.93,1.86.53.48,1.24.72,2.13.72s1.56-.23,2.01-.68c.47-.47.7-1.07.7-1.81,0-.95-.32-1.63-.95-2.05-.63-.42-1.59-.63-2.87-.63h-.44v-1.44h.46c1.17-.01,2.05-.2,2.64-.57.6-.38.89-.96.89-1.75,0-.67-.22-1.21-.67-1.62-.43-.41-1.05-.61-1.86-.61s-1.42.2-1.9.61c-.48.41-.77.95-.85,1.63h-1.69Zm17.97-7.62l-5.21,21.13h-1.71l5.19-21.13h1.73Zm2.08,16.51c1.61-1.29,2.87-2.35,3.78-3.17.91-.84,1.68-1.7,2.3-2.6.63-.91.95-1.81.95-2.68,0-.82-.2-1.47-.61-1.94-.39-.48-1.03-.72-1.92-.72s-1.53.27-2.01.82c-.47.53-.72,1.25-.76,2.15h-1.67c.05-1.42.48-2.51,1.29-3.29.81-.77,1.86-1.16,3.13-1.16s2.34.36,3.1,1.08c.77.72,1.16,1.72,1.16,2.98,0,1.05-.32,2.08-.95,3.08-.62.99-1.33,1.86-2.13,2.62-.8.75-1.82,1.62-3.06,2.62h6.54v1.44h-9.14v-1.23Zm11.14-5.62c0-2.18.35-3.88,1.06-5.09.71-1.23,1.95-1.84,3.72-1.84s3,.61,3.7,1.84c.71,1.22,1.06,2.91,1.06,5.09s-.35,3.94-1.06,5.17c-.71,1.23-1.94,1.84-3.7,1.84s-3.01-.61-3.72-1.84c-.71-1.23-1.06-2.95-1.06-5.17Zm7.85,0c0-1.1-.08-2.03-.23-2.79-.14-.77-.44-1.39-.89-1.86-.44-.47-1.09-.7-1.94-.7s-1.52.23-1.98.7c-.44.47-.74,1.09-.89,1.86-.14.76-.21,1.69-.21,2.79s.07,2.1.21,2.87c.15.77.45,1.39.89,1.86.46.47,1.11.7,1.98.7s1.49-.23,1.94-.7c.46-.47.75-1.09.89-1.86.15-.77.23-1.73.23-2.87Zm3.87,5.62c1.61-1.29,2.87-2.35,3.78-3.17.91-.84,1.68-1.7,2.3-2.6.63-.91.95-1.81.95-2.68,0-.82-.2-1.47-.61-1.94-.39-.48-1.03-.72-1.92-.72s-1.53.27-2.01.82c-.47.53-.72,1.25-.76,2.15h-1.67c.05-1.42.48-2.51,1.29-3.29.81-.77,1.86-1.16,3.14-1.16s2.34.36,3.1,1.08c.77.72,1.16,1.72,1.16,2.98,0,1.05-.32,2.08-.95,3.08-.62.99-1.33,1.86-2.13,2.62-.8.75-1.82,1.62-3.06,2.62h6.54v1.44h-9.14v-1.23Zm10.72-1.67v-1.31l6.67-9.23h2.07v9.04h1.9v1.5h-1.9v3.06h-1.71v-3.06h-7.03Zm7.11-8.74l-5.11,7.24h5.11v-7.24Z" />
</svg>