<svg xmlns="http://www.w3.org/2000/svg" fill="#ffffff" viewBox="0 -960 960 960" ><path d="M141-231q-15.75 0-26.375-10.86Q104-252.719 104-267.86q0-15.14 10.625-25.64T141-304h679q14.775 0 25.388 10.675Q856-282.649 856-267.509q0 15.141-10.612 25.825Q834.775-231 820-231H141Zm0-213q-15.75 0-26.375-10.86Q104-465.719 104-480.86q0-15.14 10.625-25.64T141-517h679q14.775 0 25.388 10.675Q856-495.649 856-480.509q0 15.141-10.612 25.825Q834.775-444 820-444H141Zm0-213q-15.75 0-26.375-10.86Q104-678.719 104-693.86q0-15.14 10.625-25.64T141-730h679q14.775 0 25.388 10.675Q856-708.649 856-693.509q0 15.141-10.612 25.825Q834.775-657 820-657H141Z" /></svg>
