<svg data-name="Shark" xmlns="http://www.w3.org/2000/svg" viewBox="0 0 838.28 415.11">
                <defs>
                    <style>
                        .cls-8, .cls-9, .cls-10 {
                            fill-rule: evenodd;
                            stroke-width: 0px;
                        }

                        .cls-9 {
                            fill: #7194b8;
                        }

                        .cls-10 {
                            fill: #b8c9db;
                        }
                    </style>
                </defs>
                <path class="cls-9" d="m822.89,232.4c-80.67-38.99-166.58-69.56-259.02-89.52-20.37-46.23-51.14-85.15-89.77-118.65,7.8,34.32,1.19,73.6-15.28,105.04-52.13-2.48-107.7,7.14-162.07,16.46-7.05-5.81-15.2-10.79-24.38-15.01-.49,6.29,2.6,13.01.47,19.09-38.34,6.35-75.69,11.67-110.42,11.44C139.69,91.95,100.48,37.49,42.38,0c5.22,38.25,21.84,74.57,30.36,113.61,6.65,30.48,8.76,40.99-5.42,68.32C52.65,210.25,1.47,247.7,0,261.5c50.65-7.3,105.29-28.62,153.36-74.53,24.57,11.2,51.71,26.4,83.44,42.01-5.01,2.12-10.56,3.78-16.82,4.89l15.38,6.48c7.42,1.1,14.53.28,21.5-1.72,12.63,5.85,25.94,11.68,40.02,17.31,6.27,17.53,10.54,38.39-2.56,49.66,31.39-6.08,48.46-6.82,73.43-26.13,42.32,11.35,90.73,19.46,146.96,21.45,8.83,37.13-4.28,76.13-6.4,114.2,38.12-22.77,68.38-73.5,81.34-109.64,69.38,6.91,132.27.09,188.14-21.47-16.64-12.23-43.79-10.52-65.7-15.79,20.05-5.56,48.75-4.76,70.94-.67,11.02,2.05,10.14,3.16,21.44-.48,10.5-3.41,21.63-8.73,30.17-15.43,10.64-8.35-4.73-15.86-11.75-19.23Z" />
                <path class="cls-8" d="m760.22,223.51c-3.24-.25-6.07,2.14-6.32,5.38s2.19,6.04,5.43,6.29c3.2.25,6.03-2.15,6.28-5.39s-2.19-6.04-5.39-6.28Z" />
                <path class="cls-10" d="m153.16,185.73c145.85,47.81,249.43,51.01,345.23,48.79,8.18,19.39,12.81,41.94,16.25,65.36-49.62-1.75-98.66-8.54-146.63-21.38l-.48-.12-.4.28c-9.83,7.58-19.74,13.3-31.55,17.09-6.17,1.99-12.49,3.4-18.88,4.62-6.42,1.25-12.84,2.39-19.29,3.6,11.2-12.75,5.56-34.02.44-48.39l-.15-.43-.44-.18c-13.5-5.36-26.81-11.15-39.94-17.27l-.37-.18-.35.12c-6.86,1.98-13.89,2.77-20.97,1.69l-12.18-5.14c4.69-1,9.28-2.43,13.74-4.29l2.07-.86-2.01-.99c-14.9-7.31-29.61-15.03-44.37-22.64-12.91-6.67-25.88-13.35-39.1-19.37l-.62-.31Zm455.06,46.06c66.07-.39,132.94,4.16,211.52,27.95-5.09,2.57-10.4,4.7-15.57,6.35-3.1.97-7.23,2.44-10.52,2.34-1.36-.07-2.71-.32-4.01-.58-2.17-.43-4.29-.89-6.42-1.28-21.44-3.99-50.38-5.15-71.4.67l-3.79,1.03,3.83.94c7.59,1.79,15.44,2.77,23.17,3.71,13.06,1.64,29.26,3.37,40.62,10.8-28.02,10.62-57.21,17.33-86.98,20.66-32.76,3.7-65.88,3.33-98.68.09,8.41-23.71,15.07-47.8,18.23-72.68Z" />
                <path class="cls-8" d="m617.94,214.58c-.49,2.01-.68,8.4-1.26,16.08-.59,7.69-1.59,16.74-1.31,24,.28,7.26,1.83,12.72,2.49,12.43.7-.25.52-6.25.91-13.76.38-7.51,1.3-16.57,1.59-22.84.29-6.23-.09-9.71-.66-12.63-.53-2.92-1.3-5.25-1.76-3.28Zm11.03-1.92c-.52,2.23-.75,9.26-1.41,17.81-.65,8.52-1.72,18.51-1.5,26.52.22,8.02,1.73,14.08,2.44,13.76.66-.29.53-6.94.97-15.24.45-8.34,1.45-18.34,1.79-25.25.34-6.94-.01-10.76-.56-13.98-.51-3.23-1.26-5.82-1.73-3.62Zm10.49,5.01c-.45,1.86-.65,7.9-1.2,15.17-.56,7.28-1.48,15.84-1.17,22.69.31,6.84,1.84,12.04,2.54,11.79.67-.26.46-5.92.81-13.01.36-7.14,1.28-15.67,1.5-21.6.27-5.93-.12-9.22-.67-11.95-.59-2.77-1.36-4.99-1.81-3.09Zm10.65,2.9c-.43,1.71-.55,7.23-1.06,13.9-.51,6.63-1.41,14.44-1.06,20.72s1.96,11.02,2.62,10.81c.7-.21.45-5.42.76-11.92.27-6.49,1.13-14.31,1.36-19.71.18-5.4-.19-8.43-.79-10.97-.6-2.51-1.36-4.58-1.83-2.83Zm10.57,4.44c-.45,1.45-.5,6.07-.93,11.64-.42,5.58-1.23,12.11-.8,17.37.43,5.26,2.1,9.25,2.76,9.08.69-.18.38-4.52.61-9.96.23-5.48.95-12.01,1.11-16.55.16-4.53-.29-7.03-.92-9.16-.6-2.13-1.41-3.86-1.83-2.42Z" />
</svg>