<svg data-name="Turtle" xmlns="http://www.w3.org/2000/svg" viewBox="0 0 224.51 184.39">
                <defs>
                    <style>
                        .cls-1 {
                            fill: #b17f4a;
                        }

                        .cls-1, .cls-2, .cls-3, .cls-4 {
                            stroke-width: 0px;
                        }

                        .cls-5 {
                            stroke: #ca9e67;
                            stroke-miterlimit: 10;
                            stroke-width: 6.03px;
                        }

                        .cls-5, .cls-6, .cls-7 {
                            fill: none;
                        }

                        .cls-3 {
                            fill: #7da21b;
                        }

                        .cls-6 {
                            stroke-width: 2.74px;
                        }

                        .cls-6, .cls-7 {
                            stroke: #d9d9d9;
                        }

                        .cls-4 {
                            fill: #95c11f;
                        }

                        .cls-7 {
                            stroke-width: 2px;
                        }
                    </style>
                </defs>
                <path class="cls-1" d="m105.59,97.61c-.13.23-1.67,2.96-2.88,6.42-2.79,8.91.55,19.25,2.83,26.06,2.4,7.17,3.6,10.76,6.77,14.95,5.61,7.41,12.66,10.63,17.04,12.58,9.34,4.14,17.44,4.36,22.16,4.43,14.88.24,24.76-4.92,26.52-6.07.11-.07.79-.53,1.74-1.11,0,0,2.7-1.66,5.35-2.97,6.17-3.04,8.64-1.76,9.92-3.97.79-1.36-.13-1.85-.43-8.8-.05-1.15-.06-2.3-.09-4.59-.04-4.1.01-7.01.01-7.57.07-7.52-5.55-18-6.13-19.07-2.22-4.08-5.82-10.54-13.19-16.17-7.31-5.58-14.42-7.37-18.47-8.33-10.76-2.58-19.1-1.13-27.85.4-8.47,1.47-12.62,3.45-15.83,5.75-3.65,2.63-5.68,5.4-6.27,6.24-2.44,3.47-3.87,6.98-4.38,9.22" />
                <path class="cls-4" d="m120.32,85.59c.03.13.17.21.31.17,1.48-.46,3.08-.91,4.79-1.3,1.95-.46,3.8-.8,5.52-1.04.08-.01.13-.1.09-.18l-.05-.1c-.38-.75-.36-1.62.03-2.36.36-.67.37-1.46.03-2.14l-1.24-2.47c-.49-.97-.79-2.01-.92-3.09l-.24-1.99-.1-1.06c-.16-1.86.19-3.72,1-5.4.31-.63.44-1.34.37-2.04l-.35-3.69c-.11-1.19-.12-2.39-.03-3.58l.1-1.31c.14-1.79-.04-3.59-.52-5.31-.19-.7-.29-1.42-.3-2.15-.01-2.31-.28-4.06-.28-4.57-.01-2.91.35-7.04.68-8.75,0,0,.11-2.23.08-1.68.02-.35.05-.9-.3-1.33-.07-.09-.1-.13-.13-.14-.71-.18-4.3,10.4-5.93,18.2-.7,3.38-1.29,6.68-1.78,9.86-.02.07-.03.16-.06.24-.01.08-.03.16-.05.24,0,0-3.47,18.07-2.72,21.77.48,2.26,1.31,4.01,2.01,5.2Z" />
                <path class="cls-4" d="m101.87,115.34c.25,1.64.56,3.37.95,5.18.34,1.58.72,3.08,1.1,4.5l-.8-.32s-.01-.01-.02,0c-1.08-.43-2.29-.07-3.08.77-.12.13-.26.25-.41.37-.71.55-1.5.72-2.11.76-.86.05-1.71.24-2.51.58-.14.06-.27.12-.41.18-.37.16-.75.3-1.13.4-.21.06-.4.11-.61.17-.81.22-1.61.54-2.36.92-4.62,2.63-9.23,5.25-13.86,7.89-.58.33-1.19.71-1.82,1.15-.57.4-1.1.79-1.58,1.17-2.21,1.82-4.41,3.64-6.62,5.45-.39.38-.79.73-1.21,1.07l-7.52,6.01c-.32.25-.77-.09-.62-.47l1.13-2.72c.35-.54.71-1.17,1.06-1.88t0-.02c.61-1.26,1.45-2.41,2.49-3.35,1.8-1.63,3.6-3.26,5.39-4.9.21-.19.42-.37.64-.55,6.32-5.04,12.65-10.08,18.97-15.13.25-.2.5-.41.75-.64l1.98-1.79c2.82-2.54,6.35-4.14,10.12-4.58l2.09-.22Z" />
                <path class="cls-4" d="m163.96,160.96s.03.01.04.02c2.29,1.4,3.98,3.61,4.73,6.18l1.15,3.97c.69,2.36,1.71,4.63,3.03,6.7l2.87,4.53c.76,1.19,2.04,1.97,3.45,2.01.01,0,.02,0,.03,0,1.33.04,2.45-.21,3.26-.5.41-.14.76-.44.98-.82,1.54-2.74,3.08-5.49,4.62-8.23.1-.18.19-.37.26-.57.22-.69.46-1.66.47-2.82,0-.02,0-.03,0-.04,0-1.58-.47-3.13-1.32-4.46-1.79-2.82-3.58-5.63-5.37-8.46-.79-1.21-1.6-2.41-2.39-3.63-1.91,1.21-4.33,2.54-7.22,3.69-3.24,1.29-6.2,2-8.6,2.41Z" />
                <path class="cls-4" d="m194.59,138.34c4.36,1.82,8.73,3.63,13.09,5.44,1.53.64,3.15,1.03,4.8,1.16l2.66.21c2.33.51,3.66.1,4.44-.4.44-.28.82-.65,1.64-1.07.94-.48,1.82-.68,2.41-.77,1.05-.71,1.18-2.21.26-3.09l-.34-.33c-2.47-2.38-5.44-4.18-8.69-5.25-6.78-2.25-13.56-4.5-20.33-6.76.02,3.62.04,7.24.05,10.86Z" />
                <path class="cls-5" d="m105.55,103.53l.35,17.33c.26,2.59.99,6.53,3.2,10.77,1.38,2.63,2.94,4.67,4.29,6.14.72,1.56,2.93,5.79,7.88,8.59,3.9,2.21,7.61,2.44,9.38,2.43,1.77,1.28,4.46,2.93,8.05,4.06,4.43,1.4,8.29,1.4,10.68,1.22,2.72.43,7.13.76,12.29-.52,3.43-.85,6.16-2.16,8.1-3.29,3.73.04,5.92-1.04,7.24-2.08,1.05-.84.85-1.09,3.77-4.06,1.95-1.99,2.35-2.18,3.18-3.38.67-.97.74-1.32,2.13-3.62.92-1.53,1.33-2.12,1.54-2.48.84-1.45,1.22-4.1-1-9.4.1-1.81.04-4.94-1.25-8.5-1.32-3.65-3.33-6.11-4.59-7.45-.89-1.98-2.42-4.77-4.96-7.57-2.58-2.85-5.25-4.66-7.15-5.74-1.57-1.85-4.2-4.5-8.1-6.73-3.77-2.16-7.25-3.1-9.59-3.54-3.07-.92-7.83-1.94-13.68-1.65-6.23.31-11.11,2-14.13,3.31-1.6.13-7,.76-11.72,5.18-4.56,4.26-5.62,9.38-5.89,10.99Z" />
                <path class="cls-4" d="m102.58,104.47c-.06.09-.25.36-1.55.32-.75-.02-1.63-.11-2.58-.32-.01,0-.03,0-.04,0-1.54-.34-3-.98-4.33-1.84-1.79-1.17-3.58-2.32-5.37-3.49-.54-.35-1.06-.76-1.53-1.22-.29-.28-.64-.59-1.06-.88-.39-.26-.76-.48-1.12-.64-.81-.38-1.41-1.1-1.62-1.96,0,0,0-.02,0-.03-.18-.72-.42-1.44-.82-2.08-.06-.11-.12-.22-.17-.35-.11-.3-.11-.6-.08-.86.07-.48.32-.92.68-1.25,1.33-1.22,2.66-2.44,3.99-3.66.11-.1.21-.21.3-.31.25-.28.68-.69,1.31-.98.25-.12.5-.2.73-.24.55-.13,1.12-.11,1.68-.01,1.61.32,3.23.64,4.84.96.23.04.46.08.7.11,1.33.14,2.93.42,4.69.97,1.24.39,2.33.85,3.27,1.3.3.15.59.3.87.48.68.42,1.47.86,2.39,1.27,1.95.87,3.29,1.06,3.26,1.44,0,.1-.11.12-.5.45-.2.16-.41.37-.84.79-.17.17-.73.73-1.31,1.38-.23.27-1.05,1.21-1.97,2.58-1.25,1.86-1.96,3.44-2.42,4.46-.31.69-.55,1.3-.93,2.23-.22.55-.28.73-.32.87-.12.37-.1.43-.17.52Z" />
                <path class="cls-5" d="m123.14,87.35l-1.26,7.5c-1.24,1.01-2.73,2.43-4.18,4.29-1.43,1.84-2.42,3.61-3.1,5.05-2.98,1.66-5.95,3.32-8.93,4.99" />
                <path class="cls-5" d="m113.38,137.76l5.22-21.21-4.01-12.37" />
                <path class="cls-5" d="m150.94,85.68l-16.02,8.79-13.06.38" />
                <path class="cls-5" d="m168.21,95.46c-.21-.23-17.2,7.49-17.2,7.49-2.25.32-4.78.55-7.55.62-2.83.06-5.42-.05-7.72-.26-.38-1.1-.77-2.55-.94-4.29-.18-1.81-.07-3.36.1-4.54" />
                <path class="cls-5" d="m130.63,148.79l2.57-20.28c-.09-1.97-.37-4.38-1.07-7.06-.95-3.64-2.34-6.54-3.56-8.63-1.49.2-3.37.6-5.45,1.4-1.86.72-3.37,1.56-4.53,2.32" />
                <path class="cls-5" d="m180.74,109.27l-12.95,3.95c-2.41.35-5.3.6-8.57.51-3.14-.08-5.91-.45-8.23-.9-.35-1.12-.72-2.72-.75-4.65-.03-2.22.4-4.03.78-5.23" />
                <path class="cls-5" d="m149.36,154.06l.54-14.96c-.36-2.49-.97-5.42-2.01-8.61-1.05-3.27-2.3-6.05-3.48-8.32-1.72.54-3.83,1.38-6.09,2.67-2.13,1.22-3.83,2.52-5.13,3.66" />
                <path class="cls-5" d="m186.59,125.22l-19.89,1.32c-.31-1.59-.55-3.69-.41-6.14.17-3.01.87-5.47,1.51-7.18" />
                <path class="cls-5" d="m169.75,150.26l-6.01-19.67c-1.99.62-4.54,1.61-7.26,3.26-2.91,1.76-5.07,3.7-6.58,5.26" />
                <path class="cls-5" d="m166.71,126.54l-2.97,4.04" />
                <path class="cls-5" d="m150.99,112.83c-1.14.97-2.57,2.37-3.92,4.29-1.32,1.89-2.14,3.67-2.65,5.05" />
                <path class="cls-5" d="m135.75,103.3c-1.18.81-2.82,2.14-4.35,4.16-1.54,2.05-2.37,4.01-2.82,5.36" />
                <path class="cls-2" d="m89.22,95.69c-.31.16-.75-.11-.99-.58-.24-.48-.18-.99.12-1.15.31-.16.75.11.99.58.24.48.18.99-.12,1.15Z" />
                <path class="cls-3" d="m87.82,92.9c.16-.09.54-.27,1.02-.19.64.11,1.18.67,1.35,1.42-.24-.3-.78-.87-1.65-1.11-.26-.07-.5-.1-.71-.11Z" />
                <circle class="cls-7" cx="67.5" cy="81.5" r="5.5" />
                <circle class="cls-7" cx="41.5" cy="53.5" r="8.5" />
                <circle class="cls-6" cx="13" cy="13" r="11.63" />
            </svg>